<?xml version="1.0" encoding="iso-8859-1"?>
<!-- Generator: Adobe Illustrator 19.0.0, SVG Export Plug-In . SVG Version: 6.00 Build 0)  -->
<svg version="1.1" id="Capa_1" xmlns="http://www.w3.org/2000/svg" xmlns:xlink="http://www.w3.org/1999/xlink" x="0px" y="0px"
	 viewBox="0 0 464 464" style="enable-background:new 0 0 464 464;" xml:space="preserve">
<g>
	<path style="fill:#322153;" d="M264,400c-4.424,0-8,3.576-8,8v8h-8c-4.424,0-8,3.576-8,8s3.576,8,8,8h8v8c0,4.424,3.576,8,8,8
		s8-3.576,8-8v-8h8c4.424,0,8-3.576,8-8s-3.576-8-8-8h-8v-8C272,403.576,268.424,400,264,400z"/>
	<path style="fill:#322153;" d="M424,96c4.424,0,8-3.576,8-8v-8h8c4.424,0,8-3.576,8-8s-3.576-8-8-8h-8v-8c0-4.424-3.576-8-8-8
		s-8,3.576-8,8v8h-8c-4.424,0-8,3.576-8,8s3.576,8,8,8h8v8C416,92.424,419.576,96,424,96z"/>
</g>
<g>
	<circle style="fill:#00F2A9;" cx="376" cy="312" r="80"/>
	<circle style="fill:#00F2A9;" cx="88" cy="312" r="80"/>
	<path style="fill:#00F2A9;" d="M56,64c13.232,0,24-10.768,24-24S69.232,16,56,16S32,26.768,32,40S42.768,64,56,64z M56,32
		c4.416,0,8,3.584,8,8s-3.584,8-8,8s-8-3.584-8-8S51.584,32,56,32z"/>
</g>
<path style="fill:#322153;" d="M376,192c-15.648,0-30.32,4.152-43.064,11.336l-33.632-56.056l1.64-3.288h20.528
	c3.312,9.288,12.112,16,22.528,16c4.424,0,8-3.576,8-8v-32c0-4.424-3.576-8-8-8c-10.416,0-19.216,6.712-22.528,16H296h-8.272
	l-16.872-28.12c-1.448-2.408-4.048-3.88-6.856-3.88h-32c-4.424,0-8,3.576-8,8c0,4.424,3.576,8,8,8h27.472l9.6,16H168h-8.272l-9.6-16
	H168c4.424,0,8-3.576,8-8s-3.576-8-8-8h-64c-4.424,0-8,3.576-8,8c0,4.424,3.576,8,8,8h27.472l9.6,16H136c-4.424,0-8,3.576-8,8
	s3.576,8,8,8h14.672l2.392,3.984l-26.512,53.032C114.888,195.296,101.84,192,88,192c-48.52,0-88,39.48-88,88s39.48,88,88,88
	s88-39.48,88-88c0-2.704-0.168-5.36-0.408-8H224v16h-24c-4.424,0-8,3.576-8,8s3.576,8,8,8h64c4.424,0,8-3.576,8-8s-3.576-8-8-8h-24
	v-22.112l50.816-101.64l28.904,48.168C300.352,228.568,288,252.864,288,279.992c0,48.52,39.48,88,88,88s88-39.48,88-88
	S424.52,192,376,192z M160,280c0,39.704-32.296,72-72,72s-72-32.296-72-72s32.296-72,72-72c11.264,0,21.896,2.672,31.4,7.304
	l-21.456,42.912c-3.04-1.392-6.384-2.224-9.944-2.224c-13.232,0-24,10.768-24,24s10.768,24,24,24s24-10.768,24-24
	c0-2.816-0.576-5.488-1.472-8h49C159.824,274.632,160,277.296,160,280z M155.8,256h-38.856L133,223.888
	C143.336,232.184,151.28,243.28,155.8,256z M96,280c0,4.416-3.584,8-8,8s-8-3.584-8-8s3.584-8,8-8S96,275.584,96,280z M172.592,256
	c-5.376-18.912-16.92-35.208-32.328-46.632l22.56-45.112l55.048,91.752L172.592,256L172.592,256z M231.36,247.392l-60.056-100.104
	l1.64-3.288h105.72l2.392,3.984L231.36,247.392z M376,352c-39.704,0-72-32.296-72-72c0-21.304,9.352-40.416,24.104-53.608
	l25.04,41.728c0.36,0.6,0.792,1.128,1.272,1.592c-1.496,3.128-2.408,6.592-2.408,10.288c0,13.232,10.768,24,24,24s24-10.768,24-24
	s-10.768-24-24-24c-3.616,0-7.016,0.864-10.088,2.304l-24.76-41.264c10.336-5.744,22.208-9.04,34.848-9.04c39.704,0,72,32.296,72,72
	S415.704,352,376,352z M368,280c0-4.416,3.584-8,8-8s8,3.584,8,8s-3.584,8-8,8S368,284.416,368,280z"/>
<g>
</g>
<g>
</g>
<g>
</g>
<g>
</g>
<g>
</g>
<g>
</g>
<g>
</g>
<g>
</g>
<g>
</g>
<g>
</g>
<g>
</g>
<g>
</g>
<g>
</g>
<g>
</g>
<g>
</g>
</svg>
