<?xml version="1.0" encoding="iso-8859-1"?>
<!-- Generator: Adobe Illustrator 19.0.0, SVG Export Plug-In . SVG Version: 6.00 Build 0)  -->
<svg version="1.1" id="Capa_1" xmlns="http://www.w3.org/2000/svg" xmlns:xlink="http://www.w3.org/1999/xlink" x="0px" y="0px"
	 viewBox="0 0 463.2 463.2" style="enable-background:new 0 0 463.2 463.2;" xml:space="preserve">
<path style="fill:#00F2A9;" d="M136,295.2c70.4,0,128-57.6,128-128s-57.6-128-128-128S8,96.8,8,167.2S65.6,295.2,136,295.2z
	 M104,71.2c17.6,0,32,14.4,32,32s-14.4,32-32,32s-32-14.4-32-32S86.4,71.2,104,71.2z"/>
<g>
	<path style="fill:#322153;" d="M136,271.2c17.6,0,35.2-3.2,50.4-9.6l199.2,199.2c1.6,1.6,3.2,2.4,5.6,2.4h64c4.8,0,8-3.2,8-8v-64
		c0-2.4-0.8-4-2.4-5.6l-32-32c-0.8-1.6-2.4-2.4-4.8-2.4h-24v-24c0-4.8-3.2-8-8-8h-24v-24c0-4.8-3.2-8-8-8h-24v-24c0-4.8-3.2-8-8-8
		h-24v-24c0-2.4-0.8-4-2.4-5.6l-39.2-39.2c6.4-16,9.6-32.8,9.6-50.4C272,60.8,211.2,0,136,0S0,60,0,135.2S60.8,271.2,136,271.2z
		 M288,234.4v28.8c0,4.8,3.2,8,8,8h24v24c0,4.8,3.2,8,8,8h24v24c0,4.8,3.2,8,8,8h24v24c0,4.8,3.2,8,8,8h28.8l27.2,27.2v52.8h-52.8
		L202.4,253.6c22.4-12,40-30.4,52.8-52.8L288,234.4z M136,15.2c66.4,0,120,53.6,120,120s-53.6,120-120,120s-120-53.6-120-120
		S69.6,15.2,136,15.2z"/>
	<path style="fill:#322153;" d="M104,111.2c22.4,0,40-17.6,40-40s-17.6-40-40-40s-40,17.6-40,40S81.6,111.2,104,111.2z M104,47.2
		c13.6,0,24,10.4,24,24s-10.4,24-24,24s-24-10.4-24-24S90.4,47.2,104,47.2z"/>
	<path style="fill:#322153;" d="M386.4,428.8c1.6,1.6,4,2.4,5.6,2.4s4-0.8,5.6-2.4c3.2-3.2,3.2-8,0-11.2l-32-32
		c-3.2-3.2-8-3.2-11.2,0s-3.2,8,0,11.2L386.4,428.8z"/>
	<path style="fill:#322153;" d="M226.4,257.6c-3.2,3.2-3.2,8,0,11.2l96,96c1.6,1.6,4,2.4,5.6,2.4s4-0.8,5.6-2.4
		c3.2-3.2,3.2-8,0-11.2l-96-96C234.4,254.4,229.6,254.4,226.4,257.6z"/>
	<path style="fill:#322153;" d="M141.6,129.6c-3.2-3.2-8-3.2-11.2,0s-3.2,8,0,11.2l64,64c1.6,1.6,4,2.4,5.6,2.4s4-0.8,5.6-2.4
		c3.2-3.2,3.2-8,0-11.2L141.6,129.6z"/>
	<path style="fill:#322153;" d="M141.6,161.6c-3.2-3.2-8-3.2-11.2,0s-3.2,8,0,11.2l32,32c1.6,1.6,4,2.4,5.6,2.4s4-0.8,5.6-2.4
		c3.2-3.2,3.2-8,0-11.2L141.6,161.6z"/>
	<path style="fill:#322153;" d="M194.4,172.8c1.6,1.6,4,2.4,5.6,2.4s4-0.8,5.6-2.4c3.2-3.2,3.2-8,0-11.2l-32-32
		c-3.2-3.2-8-3.2-11.2,0s-3.2,8,0,11.2L194.4,172.8z"/>
	<path style="fill:#322153;" d="M136,239.2c4.8,0,8-3.2,8-8s-3.2-8-8-8c-48.8,0-88-39.2-88-88c0-4.8-3.2-8-8-8s-8,3.2-8,8
		C32,192.8,78.4,239.2,136,239.2z"/>
</g>
<g>
</g>
<g>
</g>
<g>
</g>
<g>
</g>
<g>
</g>
<g>
</g>
<g>
</g>
<g>
</g>
<g>
</g>
<g>
</g>
<g>
</g>
<g>
</g>
<g>
</g>
<g>
</g>
<g>
</g>
</svg>
