<svg id="Capa_1" enable-background="new 0 0 512 512" height="512" viewBox="0 0 512 512" width="512" xmlns="http://www.w3.org/2000/svg"><g><g><path d="m498.495 453.506h-4.523-5.012v-43.04h.007 5.552l-16.351-177.023c-.761-8.239-7.673-14.542-15.947-14.542h-412.442c-8.274 0-15.186 6.303-15.947 14.542l-3.969 42.97h6.969v43.04h-10.945l-15.477 167.559c-.867 9.386 6.521 17.488 15.947 17.488h47.698l1.682-4.841h45.563l-1.682 4.841h227.071v-4.841h43.04v4.841h95.913c9.426 0 16.814-8.101 15.947-17.488z" fill="#0ab69f"/><path d="m501.59 487.012-3.095-33.506h-4.523l-5.005-43.04h5.552l-16.351-177.023c-.761-8.239-7.673-14.542-15.947-14.542h-39.722c8.274 0 15.186 6.303 15.947 14.542l23.421 253.57c.867 9.386-6.521 17.488-15.947 17.488h39.722c9.427-.001 16.815-8.102 15.948-17.489z" fill="#01998d"/><path d="m494.519 410.466h-97.784c-3.87 0-7.007-3.137-7.007-7.007v-184.559h-43.04v184.559c0 3.87-3.137 7.007-7.007 7.007h-177.55c-4.819 0-8.2-4.753-6.619-9.306l63.308-182.26h-45.563l-18.341 52.805c-.979 2.818-3.635 4.708-6.619 4.708h-118.434l-3.975 43.04h102.592c4.819 0 8.2 4.753 6.619 9.305l-61.044 175.742h45.563l16.077-46.286c.979-2.818 3.635-4.708 6.619-4.708h197.369c3.87 0 7.007 3.137 7.007 7.007v43.987h43.04v-43.987c0-3.87 3.137-7.007 7.007-7.007h101.759z" fill="#cbe5e8"/><path d="m494.519 410.466h-39.722l3.976 43.04h39.722z" fill="#a8d3d8"/><path d="m255.83 7.5c-80.009.092-145.493 67.322-145.55 147.33-.025 35.549-.004 29.419 121.408 301.072 9.392 21.015 39.232 21.017 48.628.003 121.311-271.328 121.404-264.608 121.404-302.686 0-80.535-65.332-145.811-145.89-145.719z" fill="#eb5569"/><path d="m255.83 7.5c-6.124.007-12.162.412-18.094 1.181 71.686 9.143 127.099 70.368 127.099 144.538 0 38.078-.093 31.358-121.404 302.687-1.494 3.341-3.508 6.146-5.871 8.425 12.498 12.051 34.855 9.246 42.756-8.425 121.311-271.329 121.404-264.609 121.404-302.687 0-80.536-65.332-145.811-145.89-145.719z" fill="#e53950"/><path d="m255.855 267.755c-63.066 0-114.373-51.379-114.373-114.537 0-63.154 51.308-114.533 114.373-114.533s114.373 51.379 114.373 114.533c.001 63.158-51.307 114.537-114.373 114.537z" fill="#f8a5af"/><g><path d="m307.715 237.06c-2.711 0-5.327-1.475-6.663-4.047l-13.646-26.294c-1.907-3.677-.475-8.204 3.202-10.112 3.679-1.903 8.203-.474 10.112 3.202l13.646 26.294c1.907 3.677.475 8.204-3.202 10.112-1.104.572-2.285.845-3.449.845z" fill="#444"/></g><g><path d="m204.285 237.06c-1.164 0-2.345-.272-3.449-.845-3.677-1.908-5.109-6.436-3.202-10.112l13.646-26.294c1.907-3.679 6.436-5.107 10.112-3.202 3.677 1.908 5.109 6.436 3.202 10.112l-13.646 26.294c-1.335 2.572-3.953 4.047-6.663 4.047z" fill="#444"/></g><path d="m197.755 159.642v31.411c0 6.873 5.571 12.444 12.444 12.444h91.602c6.873 0 12.444-5.571 12.444-12.444v-31.411z" fill="#0290cf"/><path d="m291.552 79.872h-71.104c-12.533 0-22.693 10.16-22.693 22.693v61.581h116.49v-61.581c0-12.533-10.16-22.693-22.693-22.693z" fill="#d8e8f0"/><path d="m219.966 173.155h-22.211v-27.025h22.211c3.317 0 6.006 2.689 6.006 6.006v15.014c0 3.316-2.689 6.005-6.006 6.005z" fill="#fec165"/><path d="m314.245 173.155h-22.211c-3.317 0-6.006-2.689-6.006-6.006v-15.014c0-3.317 2.689-6.006 6.006-6.006h22.211z" fill="#fec165"/><path d="m197.755 103.749h116.49v42.38h-116.49z" fill="#99e6fc"/></g><g><path d="m255.855 275.255c67.201 0 121.873-54.746 121.873-122.037.001-23.096-6.502-45.597-18.807-65.071-2.214-3.503-6.847-4.546-10.347-2.335-3.502 2.213-4.547 6.845-2.335 10.347 10.788 17.073 16.489 36.805 16.488 57.06 0 59.021-47.943 107.037-106.873 107.037-58.931 0-106.874-48.017-106.874-107.037 0-59.018 47.943-107.032 106.874-107.032 25.231 0 49.739 9.01 69.011 25.371 3.157 2.68 7.89 2.295 10.571-.864 2.681-3.157 2.294-7.891-.864-10.571-21.979-18.659-49.935-28.936-78.718-28.936-67.201 0-121.874 54.743-121.874 122.032.001 67.29 54.674 122.036 121.875 122.036z"/><path d="m321.745 191.053v-17.898-27.025-42.381-1.184c0-16.648-13.545-30.193-30.193-30.193h-71.104c-16.648 0-30.193 13.545-30.193 30.193v1.184 42.381 27.024 17.898c0 9.483 6.659 17.426 15.542 19.438l-8.211 15.819c-2.59 4.991 1.05 10.957 6.651 10.957 2.71 0 5.328-1.475 6.663-4.047l.763-1.471h88.673l.763 1.471c1.906 3.669 6.424 5.113 10.112 3.202 3.677-1.908 5.11-6.436 3.202-10.112l-2.919-5.625c-.003-.005-.005-.01-.008-.015l-5.283-10.179c8.883-2.012 15.542-9.955 15.542-19.437zm-101.297-103.681h71.104c6.123 0 11.397 3.647 13.801 8.877h-98.705c2.403-5.229 7.678-8.877 13.8-8.877zm-15.193 66.258h13.217v12.024h-13.217zm14.194 63.119 2.986-5.753h67.13l2.986 5.753zm87.296-25.696c0 2.726-2.218 4.943-4.944 4.943h-91.602c-2.727 0-4.944-2.218-4.944-4.943v-10.398h14.712c7.446 0 13.505-6.059 13.505-13.505v-13.52h45.057v13.52c0 7.446 6.059 13.505 13.505 13.505h14.712v10.398zm0-25.399h-13.217v-12.024h13.217zm0-27.024c-13.428 0-91.164 0-101.49 0v-27.381h101.49z"/><path d="m509.058 486.323c-.641-6.941-22.785-246.674-23.422-253.57-1.123-12.173-11.189-21.353-23.414-21.353h-65.33c12.327-31.214 12.329-39.589 12.329-58.182 0-84.623-68.465-153.218-153.22-153.218-.058 0-.122 0-.18 0-84.434.097-152.98 70.783-153.041 154.825-.012 17.448-.018 25.353 12.382 56.575h-65.384c-12.225 0-22.291 9.18-23.414 21.352-.707 7.655-15.327 165.929-16.025 173.488-.382 4.124 2.653 7.776 6.778 8.157 4.123.406 7.776-2.652 8.157-6.778l7.451-80.667h95.06l-59.064 170.048h-42.364c-4.696 0-8.517-3.81-8.517-8.492 0-.268.013-.536.037-.806l4.169-45.131c.382-4.125-2.653-7.777-6.777-8.158-4.125-.395-7.777 2.652-8.158 6.777l-4.169 45.125c-.067.724-.102 1.461-.102 2.192 0 12.954 10.55 23.492 23.517 23.492h459.285c12.967 0 23.517-10.538 23.517-23.491 0-.73-.034-1.467-.101-2.185zm-111.829-259.923h64.992c4.427 0 8.071 3.324 8.479 7.731l15.594 168.834h-89.065zm-279.449-71.565c.054-75.712 63.277-139.749 138.059-139.835h.162c76.336 0 138.22 61.758 138.22 138.219 0 18.085-.002 25.489-15.038 61.991-.15.264-.295.532-.413.817-15.413 37.173-45.977 104.068-105.305 236.815-3.596 8.045-11.363 12.089-19.585 11.202-.123-.012-.246-.023-.368-.038-6.237-.789-12.015-4.54-14.976-11.165-120.727-270.113-120.78-264.27-120.756-298.006zm221.409 188.115v60.016h-26.947c9.527-21.238 17.81-39.673 26.947-60.016zm-139.431 60.016h-36.934l16.112-46.382c6.384 14.213 13.312 29.638 20.822 46.382zm-158.458-168.834c.407-4.407 4.052-7.731 8.479-7.731h71.454c4.774 11.389 10.819 25.27 18.457 42.512h-101.603zm72.983 262.868h-29.682l57.583-165.781c1.537-4.427.833-9.35-1.883-13.168-2.716-3.819-7.136-6.099-11.821-6.099h-94.368c2.395-25.936 1.816-19.672 2.589-28.04h109.656c6.762 15.168 14.585 32.607 23.624 52.735l-21.554 62.053c-1.537 4.426-.833 9.349 1.883 13.167 2.716 3.819 7.136 6.099 11.821 6.099h44.353c4.469 9.972 12.476 27.843 12.564 28.04h-76.734c-6.172 0-11.679 3.917-13.703 9.747zm224.906 0h-209.026l12.502-35.994h83.177c6.18 11.752 17.956 18.159 30.157 18.159h.001s.001 0 .001 0h.002c12.887 0 24.243-6.904 30.161-18.159h53.026v35.994zm43.04-36.487v36.487h-28.04v-36.487c0-7.999-6.508-14.507-14.507-14.507h-46.722c4.347-9.715 8.53-19.057 12.557-28.04h34.165c7.999 0 14.507-6.508 14.507-14.507v-93.932c8.495-18.953 19.653-43.897 28.04-63.183v157.114c0 7.999 6.507 14.507 14.506 14.507h90.945l2.59 28.04h-93.535c-7.999.001-14.506 6.509-14.506 14.508zm103.414 36.487h-88.413v-35.994h94.426l2.466 26.703c.024.263.037.532.037.8 0 4.681-3.82 8.491-8.516 8.491z"/></g></g></svg>